<svg width="1938" height="2296" viewBox="0 0 1938 2296" fill="none" xmlns="http://www.w3.org/2000/svg">
<g filter="url(#filter0_ddd)">
<path d="M4 43.5705V2288H969H1934V310.367C1933.46 310.316 1917.37 310.968 1893.86 305.365C1880.46 302.171 1865.1 296.366 1847.7 288.69C1799.54 263.678 1795.52 257.008 1773.45 239.5C1755.38 224.492 1734.9 210.93 1718.59 192.81C1709.22 183.639 1705.21 178.636 1697.18 171.133C1694.84 168.94 1691.65 165.583 1687.15 161.128C1684.47 157.793 1678.32 151.798 1676.44 149.456C1668.42 139.451 1661.73 135.732 1660.73 135.118C1646.34 126.252 1643.39 125.451 1627.61 123.687C1621.69 123.025 1618.81 122.851 1617.75 122.786L1617.57 122.776C1616.62 122.717 1617.53 122.776 1606.87 122.776C1605.53 122.776 1599.91 123.361 1597.5 123.687C1592.22 124.404 1584.67 125.903 1566.73 132.781C1563.46 133.655 1551.84 140.236 1537.97 149.456C1512.17 166.6 1478.59 191.132 1476.42 192.81C1473.07 195.391 1443 216.775 1424.24 228.661C1412.55 236.066 1397.25 246.905 1373.4 259.509C1364.28 264.329 1356 268.552 1333.26 278.443C1326.03 281.588 1331.25 280.353 1304.49 290.358C1277.73 300.363 1271.11 302.253 1250.31 306.199C1228.73 310.292 1210.36 312.478 1191.44 306.199C1166.22 297.834 1148.78 284.657 1131.9 270.348C1110.32 252.062 1092.61 233.145 1092.61 233.145C1092.61 233.145 1025.81 154.907 996.094 121.108C942.575 60.2453 923.844 48.573 923.844 48.573C923.844 48.573 876.45 16.2438 849.588 7.71967C823.916 -0.426572 782.021 0.216034 782.021 0.216034C728.503 7.71967 687.476 22.2788 631.501 48.573C348.523 195.311 310.277 229.509 232.79 226.16C155.304 222.81 68.1336 150.323 4 43.5705Z" fill="#2F2E76"/>
<path d="M4 43.5705V2288H969H1934V310.367C1933.46 310.316 1917.37 310.968 1893.86 305.365C1880.46 302.171 1865.1 296.366 1847.7 288.69C1799.54 263.678 1795.52 257.008 1773.45 239.5C1755.38 224.492 1734.9 210.93 1718.59 192.81C1709.22 183.639 1705.21 178.636 1697.18 171.133C1694.84 168.94 1691.65 165.583 1687.15 161.128C1684.47 157.793 1678.32 151.798 1676.44 149.456C1668.42 139.451 1661.73 135.732 1660.73 135.118C1646.34 126.252 1643.39 125.451 1627.61 123.687C1621.69 123.025 1618.81 122.851 1617.75 122.786L1617.57 122.776C1616.62 122.717 1617.53 122.776 1606.87 122.776C1605.53 122.776 1599.91 123.361 1597.5 123.687C1592.22 124.404 1584.67 125.903 1566.73 132.781C1563.46 133.655 1551.84 140.236 1537.97 149.456C1512.17 166.6 1478.59 191.132 1476.42 192.81C1473.07 195.391 1443 216.775 1424.24 228.661C1412.55 236.066 1397.25 246.905 1373.4 259.509C1364.28 264.329 1356 268.552 1333.26 278.443C1326.03 281.588 1331.25 280.353 1304.49 290.358C1277.73 300.363 1271.11 302.253 1250.31 306.199C1228.73 310.292 1210.36 312.478 1191.44 306.199C1166.22 297.834 1148.78 284.657 1131.9 270.348C1110.32 252.062 1092.61 233.145 1092.61 233.145C1092.61 233.145 1025.81 154.907 996.094 121.108C942.575 60.2453 923.844 48.573 923.844 48.573C923.844 48.573 876.45 16.2438 849.588 7.71967C823.916 -0.426572 782.021 0.216034 782.021 0.216034C728.503 7.71967 687.476 22.2788 631.501 48.573C348.523 195.311 310.277 229.509 232.79 226.16C155.304 222.81 68.1336 150.323 4 43.5705Z" fill="url(#paint0_linear)"/>
<path d="M4 43.5705V2288H969H1934V310.367C1933.46 310.316 1917.37 310.968 1893.86 305.365C1880.46 302.171 1865.1 296.366 1847.7 288.69C1799.54 263.678 1795.52 257.008 1773.45 239.5C1755.38 224.492 1734.9 210.93 1718.59 192.81C1709.22 183.639 1705.21 178.636 1697.18 171.133C1694.84 168.94 1691.65 165.583 1687.15 161.128C1684.47 157.793 1678.32 151.798 1676.44 149.456C1668.42 139.451 1661.73 135.732 1660.73 135.118C1646.34 126.252 1643.39 125.451 1627.61 123.687C1621.69 123.025 1618.81 122.851 1617.75 122.786L1617.57 122.776C1616.62 122.717 1617.53 122.776 1606.87 122.776C1605.53 122.776 1599.91 123.361 1597.5 123.687C1592.22 124.404 1584.67 125.903 1566.73 132.781C1563.46 133.655 1551.84 140.236 1537.97 149.456C1512.17 166.6 1478.59 191.132 1476.42 192.81C1473.07 195.391 1443 216.775 1424.24 228.661C1412.55 236.066 1397.25 246.905 1373.4 259.509C1364.28 264.329 1356 268.552 1333.26 278.443C1326.03 281.588 1331.25 280.353 1304.49 290.358C1277.73 300.363 1271.11 302.253 1250.31 306.199C1228.73 310.292 1210.36 312.478 1191.44 306.199C1166.22 297.834 1148.78 284.657 1131.9 270.348C1110.32 252.062 1092.61 233.145 1092.61 233.145C1092.61 233.145 1025.81 154.907 996.094 121.108C942.575 60.2453 923.844 48.573 923.844 48.573C923.844 48.573 876.45 16.2438 849.588 7.71967C823.916 -0.426572 782.021 0.216034 782.021 0.216034C728.503 7.71967 687.476 22.2788 631.501 48.573C348.523 195.311 310.277 229.509 232.79 226.16C155.304 222.81 68.1336 150.323 4 43.5705Z" fill="url(#paint1_linear)"/>
</g>
<defs>
<filter id="filter0_ddd" x="0" y="0.204102" width="1938" height="2295.8" filterUnits="userSpaceOnUse" color-interpolation-filters="sRGB">
<feFlood flood-opacity="0" result="BackgroundImageFix"/>
<feColorMatrix in="SourceAlpha" type="matrix" values="0 0 0 0 0 0 0 0 0 0 0 0 0 0 0 0 0 0 127 0"/>
<feOffset dy="4"/>
<feGaussianBlur stdDeviation="2"/>
<feColorMatrix type="matrix" values="0 0 0 0 0 0 0 0 0 0 0 0 0 0 0 0 0 0 0.25 0"/>
<feBlend mode="normal" in2="BackgroundImageFix" result="effect1_dropShadow"/>
<feColorMatrix in="SourceAlpha" type="matrix" values="0 0 0 0 0 0 0 0 0 0 0 0 0 0 0 0 0 0 127 0"/>
<feOffset dy="4"/>
<feGaussianBlur stdDeviation="2"/>
<feColorMatrix type="matrix" values="0 0 0 0 0 0 0 0 0 0 0 0 0 0 0 0 0 0 0.25 0"/>
<feBlend mode="normal" in2="effect1_dropShadow" result="effect2_dropShadow"/>
<feColorMatrix in="SourceAlpha" type="matrix" values="0 0 0 0 0 0 0 0 0 0 0 0 0 0 0 0 0 0 127 0"/>
<feOffset dy="4"/>
<feGaussianBlur stdDeviation="2"/>
<feColorMatrix type="matrix" values="0 0 0 0 0 0 0 0 0 0 0 0 0 0 0 0 0 0 0.25 0"/>
<feBlend mode="normal" in2="effect2_dropShadow" result="effect3_dropShadow"/>
<feBlend mode="normal" in="SourceGraphic" in2="effect3_dropShadow" result="shape"/>
</filter>
<linearGradient id="paint0_linear" x1="969" y1="0.204102" x2="969" y2="2288" gradientUnits="userSpaceOnUse">
<stop stop-color="#00F0FF" stop-opacity="0.71"/>
<stop offset="1" stop-color="white" stop-opacity="0"/>
</linearGradient>
<linearGradient id="paint1_linear" x1="969" y1="0.204102" x2="969" y2="2288" gradientUnits="userSpaceOnUse">
<stop stop-color="#ECD3FF" stop-opacity="0"/>
<stop offset="1" stop-color="#B828FC" stop-opacity="0.59"/>
</linearGradient>
</defs>
</svg>
