<svg width="1764" height="1588" viewBox="0 0 1764 1588" fill="none" xmlns="http://www.w3.org/2000/svg">
<path d="M739.999 92.1531C749.675 97.9849 749.675 112.015 739.999 117.847L633.187 182.225C623.189 188.25 610.444 181.051 610.444 169.378L610.444 40.6221C610.444 28.9492 623.189 21.7495 633.187 27.7751L739.999 92.1531Z" fill="#B828FC" fill-opacity="0.21"/>
<path d="M1741.53 220.206C1750.03 225.465 1750.47 237.664 1742.37 243.482L1639.68 317.222C1630.6 323.739 1617.9 317.494 1617.5 306.317L1612.47 165.927C1612.07 154.75 1624.29 147.665 1633.81 153.556L1741.53 220.206Z" fill="#B828FC" fill-opacity="0.21"/>
<path d="M1080.07 533.12C1071.23 527.635 1071.25 514.765 1080.11 509.306L1377.52 325.973C1386.85 320.218 1398.88 326.944 1398.86 337.91L1398.31 705.418C1398.29 716.384 1386.24 723.076 1376.92 717.295L1080.07 533.12Z" fill="#B828FC" fill-opacity="0.1"/>
<path d="M460.615 1080.61C469.578 1085.91 469.851 1098.78 461.121 1104.42L167.962 1294.07C158.76 1300.03 146.583 1293.56 146.349 1282.6L138.537 915.166C138.304 904.202 150.196 897.255 159.643 902.835L460.615 1080.61Z" fill="#00F0FF" fill-opacity="0.1"/>
<path d="M16.6028 387.533C8.62645 381.949 8.64375 370.131 16.6364 364.571L119.792 292.812C129.082 286.349 141.803 293.008 141.787 304.325L141.576 448.145C141.56 459.461 128.819 466.083 119.548 459.593L16.6028 387.533Z" fill="#B828FC" fill-opacity="0.21"/>
<path d="M1653.99 1285.15C1663.66 1290.98 1663.66 1305.02 1653.99 1310.85L1547.18 1375.22C1537.18 1381.25 1524.43 1374.05 1524.43 1362.38L1524.43 1233.62C1524.43 1221.95 1537.18 1214.75 1547.18 1220.78L1653.99 1285.15Z" fill="#00F0FF" fill-opacity="0.1"/>
<path d="M873.895 1494.76C864.155 1489.03 863.998 1475 873.608 1469.07L979.693 1403.57C989.623 1397.44 1002.45 1404.51 1002.58 1416.18L1004.02 1544.93C1004.15 1556.6 991.485 1563.93 981.421 1558.01L873.895 1494.76Z" fill="#00F0FF" fill-opacity="0.1"/>
</svg>
